<svg xmlns="http://www.w3.org/2000/svg" viewBox="0 0 310 64" fill="none">
  <!-- Q: hollow donut + tail - WHITE for dark backgrounds -->
  <path fill-rule="evenodd" fill="#ffffff" d="
    M32,4 A28,28 0 1,0 32,60 A28,28 0 1,0 32,4 Z
    M32,17 A15,15 0 1,1 32,47 A15,15 0 1,1 32,17 Z
  "/>
  <path fill="#ffffff" d="M47 46 L55 44 L66 62 L58 64 Z"/>

  <!-- UANTIC — white for dark backgrounds -->
  <text x="76" y="52"
    font-family="-apple-system, BlinkMacSystemFont, 'Helvetica Neue', Helvetica, Arial, sans-serif"
    font-weight="800"
    font-size="46"
    letter-spacing="-1"
    fill="#ffffff">UANTIC</text>

  <!-- Red pin above I -->
  <path fill="#E91D22" d="M230,2 A6,6 0 1,0 218,2 C218,2 224,18 224,18 C224,18 230,2 230,2 Z"/>
</svg>
